<svg width="1273" height="595" fill="none" xmlns="http://www.w3.org/2000/svg"><path d="M13.976 27.945c-3.882 0-7.182-1.358-9.9-4.075C1.36 21.153 0 17.854 0 13.973c0-3.882 1.359-7.18 4.076-9.898C6.794 1.358 10.094 0 13.976 0h174.412c5.435 0 10.482 1.067 15.141 3.202 4.852 1.94 9.026 4.658 12.52 8.15 3.688 3.494 6.503 7.57 8.444 12.227 2.135 4.657 3.203 9.703 3.203 15.137 0 6.598-1.068 12.129-3.203 16.592-2.135 4.27-5.047 7.86-8.735 10.77-3.494 2.912-7.668 5.337-12.521 7.278a241.07 241.07 0 0 1-15.432 4.949L28.825 125.17a55.442 55.442 0 0 0-4.075 1.165c-.971.388-2.136.582-3.494.582-3.883 0-7.377-1.262-10.483-3.784-2.911-2.717-4.367-6.113-4.367-10.189 0-3.299 1.067-6.113 3.203-8.442 2.135-2.328 4.658-3.978 7.57-4.948l174.412-49.778c3.3-.97 5.629-2.231 6.988-3.784 1.358-1.746 2.038-4.172 2.038-7.277 0-2.911-1.165-5.434-3.494-7.569-2.135-2.134-4.659-3.202-7.571-3.202H13.976zM294.617 62.877c0-6.47 2.124-11.903 6.371-16.302 4.513-4.657 10.088-6.986 16.724-6.986 6.636 0 12.211 2.329 16.724 6.986 4.512 4.4 6.769 9.833 6.769 16.302 0 6.468-2.257 12.032-6.769 16.69-4.513 4.398-10.088 6.597-16.724 6.597-6.636 0-12.211-2.199-16.724-6.598-4.247-4.657-6.371-10.22-6.371-16.69zM411.086 62.877c0-6.47 2.123-11.903 6.371-16.302 4.512-4.657 10.087-6.986 16.723-6.986 6.637 0 12.211 2.329 16.724 6.986 4.513 4.4 6.769 9.833 6.769 16.302 0 6.468-2.256 12.032-6.769 16.69-4.513 4.398-10.087 6.597-16.724 6.597-6.636 0-12.211-2.199-16.723-6.598-4.248-4.657-6.371-10.22-6.371-16.69zM527.554 62.877c0-6.47 2.124-11.903 6.371-16.302 4.513-4.657 10.087-6.986 16.724-6.986 6.636 0 12.211 2.329 16.723 6.986 4.513 4.4 6.77 9.833 6.77 16.302 0 6.468-2.257 12.032-6.77 16.69-4.512 4.398-10.087 6.597-16.723 6.597-6.637 0-12.211-2.199-16.724-6.598-4.247-4.657-6.371-10.22-6.371-16.69zM644.023 62.877c0-6.47 2.123-11.903 6.371-16.302 4.512-4.657 10.087-6.986 16.723-6.986 6.637 0 12.211 2.329 16.724 6.986 4.513 4.4 6.769 9.833 6.769 16.302 0 6.468-2.256 12.032-6.769 16.69-4.513 4.398-10.087 6.597-16.724 6.597-6.636 0-12.211-2.199-16.723-6.598-4.248-4.657-6.371-10.22-6.371-16.69zM760.491 62.877c0-6.47 2.124-11.903 6.371-16.302 4.513-4.657 10.087-6.986 16.724-6.986 6.636 0 12.211 2.329 16.723 6.986 4.513 4.4 6.769 9.833 6.769 16.302 0 6.468-2.256 12.032-6.769 16.69-4.512 4.398-10.087 6.597-16.723 6.597-6.637 0-12.211-2.199-16.724-6.598-4.247-4.657-6.371-10.22-6.371-16.69zM876.96 62.877c0-6.47 2.123-11.903 6.37-16.302 4.513-4.657 10.088-6.986 16.724-6.986 6.636 0 12.211 2.329 16.724 6.986 4.513 4.4 6.769 9.833 6.769 16.302 0 6.468-2.256 12.032-6.769 16.69-4.513 4.398-10.088 6.597-16.724 6.597-6.636 0-12.211-2.199-16.724-6.598-4.247-4.657-6.37-10.22-6.37-16.69zM993.428 62.877c0-6.47 2.124-11.903 6.371-16.302 4.511-4.657 10.091-6.986 16.721-6.986 6.64 0 12.21 2.329 16.73 6.986 4.51 4.4 6.77 9.833 6.77 16.302 0 6.468-2.26 12.032-6.77 16.69-4.52 4.398-10.09 6.597-16.73 6.597-6.63 0-12.21-2.199-16.721-6.598-4.247-4.657-6.371-10.22-6.371-16.69z" fill="#EDBB6A"/><path fill-rule="evenodd" clip-rule="evenodd" d="M188.388 156.027c2.201 0 4.339.176 6.413.526a37.426 37.426 0 0 1 8.971 2.676 40.987 40.987 0 0 1 12.52 8.151c3.494 3.493 6.309 7.569 8.444 12.226 1.465 3.515 2.377 7.25 2.737 11.206a39.592 39.592 0 0 1 .219 4.804h.004v43.462c.032.645.048 1.294.048 1.949v27.946c0 3.881-1.359 7.18-4.077 9.897-2.717 2.717-6.017 4.075-9.9 4.075h-1.794v-.111c-2.973-.374-5.674-1.696-8.105-3.964-2.718-2.717-4.077-6.016-4.077-9.897v-24.744c0-2.911-.873-5.336-2.62-7.277-1.747-1.941-3.883-3.105-6.406-3.493H39.355c-5.434 0-10.578-.97-15.431-2.911a45.867 45.867 0 0 1-12.52-8.442 40.842 40.842 0 0 1-5.414-6.695h-.082c-.473-.77-.92-1.557-1.34-2.362a44.274 44.274 0 0 1-1.609-3.169 36.878 36.878 0 0 1-1.936-6.094C.34 200.982 0 198.065 0 195.034c0-1.434.074-2.841.223-4.222.36-3.956 1.272-7.691 2.736-11.206 2.136-4.657 4.95-8.733 8.444-12.226a40.995 40.995 0 0 1 12.52-8.151 37.437 37.437 0 0 1 8.972-2.676 38.485 38.485 0 0 1 6.413-.526h149.08zM38.191 183.973c-.352 0-.7.015-1.043.046-2.495.239-4.687 1.388-6.575 3.447-1.896 1.737-3.02 3.732-3.373 5.984-.049.422-.073.853-.073 1.293 0 3.105 1.067 5.725 3.203 7.86 2.329 1.94 4.95 2.911 7.861 2.911h148.402c2.912 0 5.532-.971 7.862-2.911 2.135-2.135 3.202-4.755 3.202-7.86 0-.44-.024-.871-.073-1.293-.353-2.252-1.477-4.247-3.373-5.984-1.888-2.059-4.08-3.208-6.575-3.447a11.589 11.589 0 0 0-1.043-.046H38.191z" fill="#EDBB6A"/><path d="M294.665 218.904c0-6.469 2.124-11.902 6.371-16.301 4.513-4.658 10.087-6.987 16.724-6.987 6.636 0 12.211 2.329 16.723 6.987 4.513 4.399 6.77 9.832 6.77 16.301 0 6.469-2.257 12.032-6.77 16.69-4.512 4.398-10.087 6.598-16.723 6.598-6.637 0-12.211-2.2-16.724-6.598-4.247-4.658-6.371-10.221-6.371-16.69zM411.134 218.904c0-6.469 2.123-11.902 6.37-16.301 4.513-4.658 10.088-6.987 16.724-6.987 6.637 0 12.211 2.329 16.724 6.987 4.513 4.399 6.769 9.832 6.769 16.301 0 6.469-2.256 12.032-6.769 16.69-4.513 4.398-10.087 6.598-16.724 6.598-6.636 0-12.211-2.2-16.724-6.598-4.247-4.658-6.37-10.221-6.37-16.69zM527.602 218.904c0-6.469 2.124-11.902 6.371-16.301 4.513-4.658 10.087-6.987 16.724-6.987 6.636 0 12.211 2.329 16.723 6.987 4.513 4.399 6.769 9.832 6.769 16.301 0 6.469-2.256 12.032-6.769 16.69-4.512 4.398-10.087 6.598-16.723 6.598-6.637 0-12.211-2.2-16.724-6.598-4.247-4.658-6.371-10.221-6.371-16.69zM644.07 218.904c0-6.469 2.124-11.902 6.371-16.301 4.513-4.658 10.088-6.987 16.724-6.987 6.636 0 12.211 2.329 16.724 6.987 4.512 4.399 6.769 9.832 6.769 16.301 0 6.469-2.257 12.032-6.769 16.69-4.513 4.398-10.088 6.598-16.724 6.598-6.636 0-12.211-2.2-16.724-6.598-4.247-4.658-6.371-10.221-6.371-16.69zM760.539 218.904c0-6.469 2.123-11.902 6.371-16.301 4.512-4.658 10.087-6.987 16.723-6.987 6.637 0 12.211 2.329 16.724 6.987 4.513 4.399 6.769 9.832 6.769 16.301 0 6.469-2.256 12.032-6.769 16.69-4.513 4.398-10.087 6.598-16.724 6.598-6.636 0-12.211-2.2-16.723-6.598-4.248-4.658-6.371-10.221-6.371-16.69zM877.007 218.904c0-6.469 2.124-11.902 6.371-16.301 4.513-4.658 10.087-6.987 16.724-6.987 6.636 0 12.211 2.329 16.724 6.987 4.512 4.399 6.769 9.832 6.769 16.301 0 6.469-2.257 12.032-6.769 16.69-4.513 4.398-10.088 6.598-16.724 6.598-6.637 0-12.211-2.2-16.724-6.598-4.247-4.658-6.371-10.221-6.371-16.69zM993.476 218.904c0-6.469 2.123-11.902 6.371-16.301 4.513-4.658 10.083-6.987 16.723-6.987 6.64 0 12.21 2.329 16.72 6.987 4.52 4.399 6.77 9.832 6.77 16.301 0 6.469-2.25 12.032-6.77 16.69-4.51 4.398-10.08 6.598-16.72 6.598-6.64 0-12.21-2.2-16.723-6.598-4.248-4.658-6.371-10.221-6.371-16.69zM1109.94 218.904c0-6.469 2.13-11.902 6.38-16.301 4.51-4.658 10.08-6.987 16.72-6.987 6.64 0 12.21 2.329 16.72 6.987 4.52 4.399 6.77 9.832 6.77 16.301 0 6.469-2.25 12.032-6.77 16.69-4.51 4.398-10.08 6.598-16.72 6.598-6.64 0-12.21-2.2-16.72-6.598-4.25-4.658-6.38-10.221-6.38-16.69zM1226.41 218.904c0-6.469 2.13-11.902 6.37-16.301 4.52-4.658 10.09-6.987 16.73-6.987 6.63 0 12.21 2.329 16.72 6.987 4.51 4.399 6.77 9.832 6.77 16.301 0 6.469-2.26 12.032-6.77 16.69-4.51 4.398-10.09 6.598-16.72 6.598-6.64 0-12.21-2.2-16.73-6.598-4.24-4.658-6.37-10.221-6.37-16.69zM13.976 340c-3.882 0-7.182-1.358-9.9-4.075C1.36 333.208 0 329.909 0 326.027c0-3.881 1.359-7.18 4.076-9.897 2.718-2.717 6.018-4.075 9.9-4.075h174.412c5.435 0 10.482 1.067 15.141 3.202 4.852 1.94 9.026 4.657 12.52 8.151 3.688 3.493 6.503 7.568 8.444 12.226 2.135 4.657 3.203 9.703 3.203 15.137 0 6.598-1.068 12.129-3.203 16.592-2.135 4.269-5.047 7.86-8.735 10.771-3.494 2.91-7.668 5.336-12.521 7.277a241.066 241.066 0 0 1-15.432 4.949l-158.98 46.866a55.978 55.978 0 0 0-4.075 1.164c-.971.389-2.136.583-3.494.583-3.883 0-7.377-1.262-10.483-3.785-2.911-2.717-4.367-6.113-4.367-10.188 0-3.299 1.067-6.113 3.203-8.442 2.135-2.329 4.658-3.978 7.57-4.948l174.412-49.778c3.3-.97 5.629-2.232 6.988-3.784 1.358-1.747 2.038-4.172 2.038-7.277 0-2.911-1.165-5.434-3.494-7.569-2.135-2.135-4.659-3.202-7.571-3.202H13.976zM294.617 376.096c0-6.469 2.124-11.903 6.371-16.301 4.513-4.658 10.088-6.987 16.724-6.987 6.636 0 12.211 2.329 16.724 6.987 4.512 4.398 6.769 9.832 6.769 16.301 0 6.469-2.257 12.032-6.769 16.689-4.513 4.399-10.088 6.599-16.724 6.599-6.636 0-12.211-2.2-16.724-6.599-4.247-4.657-6.371-10.22-6.371-16.689zM411.086 376.096c0-6.469 2.123-11.903 6.371-16.301 4.512-4.658 10.087-6.987 16.723-6.987 6.637 0 12.211 2.329 16.724 6.987 4.513 4.398 6.769 9.832 6.769 16.301 0 6.469-2.256 12.032-6.769 16.689-4.513 4.399-10.087 6.599-16.724 6.599-6.636 0-12.211-2.2-16.723-6.599-4.248-4.657-6.371-10.22-6.371-16.689zM527.554 376.096c0-6.469 2.124-11.903 6.371-16.301 4.513-4.658 10.087-6.987 16.724-6.987 6.636 0 12.211 2.329 16.723 6.987 4.513 4.398 6.77 9.832 6.77 16.301 0 6.469-2.257 12.032-6.77 16.689-4.512 4.399-10.087 6.599-16.723 6.599-6.637 0-12.211-2.2-16.724-6.599-4.247-4.657-6.371-10.22-6.371-16.689zM644.023 376.096c0-6.469 2.123-11.903 6.371-16.301 4.512-4.658 10.087-6.987 16.723-6.987 6.637 0 12.211 2.329 16.724 6.987 4.513 4.398 6.769 9.832 6.769 16.301 0 6.469-2.256 12.032-6.769 16.689-4.513 4.399-10.087 6.599-16.724 6.599-6.636 0-12.211-2.2-16.723-6.599-4.248-4.657-6.371-10.22-6.371-16.689zM760.491 376.096c0-6.469 2.124-11.903 6.371-16.301 4.513-4.658 10.087-6.987 16.724-6.987 6.636 0 12.211 2.329 16.723 6.987 4.513 4.398 6.769 9.832 6.769 16.301 0 6.469-2.256 12.032-6.769 16.689-4.512 4.399-10.087 6.599-16.723 6.599-6.637 0-12.211-2.2-16.724-6.599-4.247-4.657-6.371-10.22-6.371-16.689zM876.96 376.096c0-6.469 2.123-11.903 6.37-16.301 4.513-4.658 10.088-6.987 16.724-6.987 6.636 0 12.211 2.329 16.724 6.987 4.513 4.398 6.769 9.832 6.769 16.301 0 6.469-2.256 12.032-6.769 16.689-4.513 4.399-10.088 6.599-16.724 6.599-6.636 0-12.211-2.2-16.724-6.599-4.247-4.657-6.37-10.22-6.37-16.689zM993.428 376.096c0-6.469 2.124-11.903 6.371-16.301 4.511-4.658 10.091-6.987 16.721-6.987 6.64 0 12.21 2.329 16.73 6.987 4.51 4.398 6.77 9.832 6.77 16.301 0 6.469-2.26 12.032-6.77 16.689-4.52 4.399-10.09 6.599-16.73 6.599-6.63 0-12.21-2.2-16.721-6.599-4.247-4.657-6.371-10.22-6.371-16.689zM293.5 530.959c0-6.469 2.124-11.903 6.371-16.301 4.513-4.658 10.088-6.987 16.724-6.987 6.636 0 12.211 2.329 16.724 6.987 4.512 4.398 6.769 9.832 6.769 16.301 0 6.469-2.257 12.032-6.769 16.689-4.513 4.399-10.088 6.599-16.724 6.599-6.636 0-12.211-2.2-16.724-6.599-4.247-4.657-6.371-10.22-6.371-16.689zM409.969 530.959c0-6.469 2.124-11.903 6.371-16.301 4.513-4.658 10.087-6.987 16.723-6.987 6.637 0 12.211 2.329 16.724 6.987 4.513 4.398 6.769 9.832 6.769 16.301 0 6.469-2.256 12.032-6.769 16.689-4.513 4.399-10.087 6.599-16.724 6.599-6.636 0-12.21-2.2-16.723-6.599-4.247-4.657-6.371-10.22-6.371-16.689zM526.437 530.959c0-6.469 2.124-11.903 6.371-16.301 4.513-4.658 10.088-6.987 16.724-6.987 6.636 0 12.211 2.329 16.724 6.987 4.512 4.398 6.769 9.832 6.769 16.301 0 6.469-2.257 12.032-6.769 16.689-4.513 4.399-10.088 6.599-16.724 6.599-6.636 0-12.211-2.2-16.724-6.599-4.247-4.657-6.371-10.22-6.371-16.689zM642.906 530.959c0-6.469 2.123-11.903 6.371-16.301 4.512-4.658 10.087-6.987 16.723-6.987 6.637 0 12.211 2.329 16.724 6.987 4.513 4.398 6.769 9.832 6.769 16.301 0 6.469-2.256 12.032-6.769 16.689-4.513 4.399-10.087 6.599-16.724 6.599-6.636 0-12.211-2.2-16.723-6.599-4.248-4.657-6.371-10.22-6.371-16.689zM759.374 530.959c0-6.469 2.124-11.903 6.371-16.301 4.513-4.658 10.087-6.987 16.724-6.987 6.636 0 12.211 2.329 16.723 6.987 4.513 4.398 6.77 9.832 6.77 16.301 0 6.469-2.257 12.032-6.77 16.689-4.512 4.399-10.087 6.599-16.723 6.599-6.637 0-12.211-2.2-16.724-6.599-4.247-4.657-6.371-10.22-6.371-16.689zM875.843 530.959c0-6.469 2.123-11.903 6.371-16.301 4.512-4.658 10.087-6.987 16.723-6.987 6.637 0 12.211 2.329 16.724 6.987 4.513 4.398 6.769 9.832 6.769 16.301 0 6.469-2.256 12.032-6.769 16.689-4.513 4.399-10.087 6.599-16.724 6.599-6.636 0-12.211-2.2-16.723-6.599-4.248-4.657-6.371-10.22-6.371-16.689zM992.311 530.959c0-6.469 2.124-11.903 6.371-16.301 4.508-4.658 10.088-6.987 16.728-6.987 6.63 0 12.21 2.329 16.72 6.987 4.51 4.398 6.77 9.832 6.77 16.301 0 6.469-2.26 12.032-6.77 16.689-4.51 4.399-10.09 6.599-16.72 6.599-6.64 0-12.22-2.2-16.728-6.599-4.247-4.657-6.371-10.22-6.371-16.689zM1108.78 530.959c0-6.469 2.12-11.903 6.37-16.301 4.51-4.658 10.09-6.987 16.72-6.987 6.64 0 12.21 2.329 16.73 6.987 4.51 4.398 6.77 9.832 6.77 16.301 0 6.469-2.26 12.032-6.77 16.689-4.52 4.399-10.09 6.599-16.73 6.599-6.63 0-12.21-2.2-16.72-6.599-4.25-4.657-6.37-10.22-6.37-16.689zM190.717 567.055c2.912 0 5.435-1.068 7.571-3.202 2.329-2.135 3.494-4.658 3.494-7.569 0-3.105-1.165-5.628-3.494-7.568-2.136-2.135-4.659-3.202-7.571-3.202h-151.7c-2.912 0-5.435.97-7.57 2.911-2.136 1.94-3.203 4.463-3.203 7.568 0 2.911 1.067 5.531 3.203 7.86 2.329 2.134 4.95 3.202 7.861 3.202h151.409zM39.308 496.027c-2.912 0-5.532 1.068-7.861 3.202-2.136 2.135-3.203 4.658-3.203 7.569 0 3.105 1.067 5.725 3.203 7.86 2.329 1.94 4.95 2.91 7.861 2.91h151.7c2.912 0 5.435-.97 7.571-2.91 2.135-1.941 3.203-4.464 3.203-7.569 0-2.911-1.165-5.434-3.494-7.568-2.136-2.329-4.659-3.494-7.571-3.494H39.308zM40.473 595c-5.435 0-10.58-.97-15.432-2.911a45.865 45.865 0 0 1-12.52-8.442c-3.495-3.493-6.31-7.568-8.445-12.226-1.94-4.851-2.911-9.994-2.911-15.428 0-4.851.776-9.315 2.329-13.39 1.747-4.27 3.98-8.054 6.697-11.353-2.718-3.299-4.95-6.986-6.697-11.062-1.553-4.269-2.33-8.733-2.33-13.39 0-5.434.971-10.48 2.912-15.137 2.136-4.658 4.95-8.733 8.444-12.226a40.994 40.994 0 0 1 12.52-8.151c4.854-2.134 9.998-3.202 15.433-3.202h149.079c5.436 0 10.483 1.068 15.141 3.202 4.853 1.941 9.027 4.658 12.521 8.151 3.688 3.493 6.502 7.665 8.444 12.517 2.135 4.658 3.202 9.703 3.202 15.137 0 4.852-.873 9.412-2.62 13.682-1.553 4.075-3.688 7.762-6.406 11.061 2.718 3.299 4.853 7.084 6.406 11.353 1.747 4.075 2.62 8.442 2.62 13.099 0 5.434-1.067 10.48-3.202 15.137-1.942 4.658-4.756 8.733-8.444 12.226-3.494 3.493-7.668 6.307-12.521 8.442-4.658 1.941-9.705 2.911-15.141 2.911H40.472z" fill="#EDBB6A"/></svg>